<mxfile host="app.diagrams.net" agent="Mozilla/5.0 (X11; Linux x86_64) AppleWebKit/537.36 (KHTML, like Gecko) Chrome/137.0.0.0 Safari/537.36" version="27.1.4">
  <diagram name="Halaman-1" id="ZWikzCEQHy2WKAv0dDQ_">
    <mxGraphModel dx="698" dy="586" grid="1" gridSize="10" guides="1" tooltips="1" connect="1" arrows="1" fold="1" page="1" pageScale="1" pageWidth="827" pageHeight="1169" math="0" shadow="0" adaptiveColors="simple">
      <root>
        <mxCell id="0" />
        <mxCell id="1" parent="0" />
        <mxCell id="s-CJSZ-t-h5Rf1pWgORS-7" value="" style="edgeStyle=orthogonalEdgeStyle;rounded=0;orthogonalLoop=1;jettySize=auto;html=1;" parent="1" source="s-CJSZ-t-h5Rf1pWgORS-1" target="s-CJSZ-t-h5Rf1pWgORS-2" edge="1">
          <mxGeometry relative="1" as="geometry" />
        </mxCell>
        <mxCell id="s-CJSZ-t-h5Rf1pWgORS-1" value="Modem Nexa" style="fontColor=#000000;verticalAlign=top;verticalLabelPosition=bottom;labelPosition=center;align=center;html=1;outlineConnect=0;fillColor=#CCCCCC;strokeColor=#000000;gradientColor=none;gradientDirection=north;strokeWidth=2;shape=mxgraph.networks.wireless_modem;" parent="1" vertex="1">
          <mxGeometry x="80" y="40" width="70" height="50" as="geometry" />
        </mxCell>
        <mxCell id="s-CJSZ-t-h5Rf1pWgORS-6" value="" style="edgeStyle=orthogonalEdgeStyle;rounded=0;orthogonalLoop=1;jettySize=auto;html=1;" parent="1" source="s-CJSZ-t-h5Rf1pWgORS-2" target="s-CJSZ-t-h5Rf1pWgORS-5" edge="1">
          <mxGeometry relative="1" as="geometry" />
        </mxCell>
        <mxCell id="s-CJSZ-t-h5Rf1pWgORS-31" value="eth7" style="edgeLabel;html=1;align=center;verticalAlign=middle;resizable=0;points=[];" parent="s-CJSZ-t-h5Rf1pWgORS-6" vertex="1" connectable="0">
          <mxGeometry x="0.7269" y="-3" relative="1" as="geometry">
            <mxPoint x="-18" y="-8" as="offset" />
          </mxGeometry>
        </mxCell>
        <mxCell id="s-CJSZ-t-h5Rf1pWgORS-32" value="eth4" style="edgeLabel;html=1;align=center;verticalAlign=middle;resizable=0;points=[];" parent="s-CJSZ-t-h5Rf1pWgORS-6" vertex="1" connectable="0">
          <mxGeometry x="-0.8142" y="-1" relative="1" as="geometry">
            <mxPoint x="12" y="-6" as="offset" />
          </mxGeometry>
        </mxCell>
        <mxCell id="s-CJSZ-t-h5Rf1pWgORS-2" value="Mikrotik&lt;div&gt;RB3011&lt;/div&gt;" style="sketch=0;points=[[0.5,0,0],[1,0.5,0],[0.5,1,0],[0,0.5,0],[0.145,0.145,0],[0.8555,0.145,0],[0.855,0.8555,0],[0.145,0.855,0]];verticalLabelPosition=bottom;html=1;verticalAlign=top;aspect=fixed;align=center;pointerEvents=1;shape=mxgraph.cisco19.rect;prIcon=router;fillColor=#FAFAFA;strokeColor=#000000;" parent="1" vertex="1">
          <mxGeometry x="240" y="40" width="50" height="50" as="geometry" />
        </mxCell>
        <mxCell id="s-CJSZ-t-h5Rf1pWgORS-15" style="edgeStyle=orthogonalEdgeStyle;rounded=0;orthogonalLoop=1;jettySize=auto;html=1;entryX=0.4;entryY=0;entryDx=0;entryDy=0;entryPerimeter=0;" parent="1" source="s-CJSZ-t-h5Rf1pWgORS-5" target="s-CJSZ-t-h5Rf1pWgORS-8" edge="1">
          <mxGeometry relative="1" as="geometry">
            <mxPoint x="270" y="180" as="targetPoint" />
            <Array as="points">
              <mxPoint x="440" y="65" />
              <mxPoint x="440" y="140" />
              <mxPoint x="260" y="140" />
            </Array>
          </mxGeometry>
        </mxCell>
        <mxCell id="s-CJSZ-t-h5Rf1pWgORS-5" value="Switch Ruijie&lt;div&gt;8 Port POE&lt;/div&gt;" style="sketch=0;points=[[0.015,0.015,0],[0.985,0.015,0],[0.985,0.985,0],[0.015,0.985,0],[0.25,0,0],[0.5,0,0],[0.75,0,0],[1,0.25,0],[1,0.5,0],[1,0.75,0],[0.75,1,0],[0.5,1,0],[0.25,1,0],[0,0.75,0],[0,0.5,0],[0,0.25,0]];verticalLabelPosition=bottom;html=1;verticalAlign=top;aspect=fixed;align=center;pointerEvents=1;shape=mxgraph.cisco19.rect;prIcon=l2_switch;fillColor=#FAFAFA;strokeColor=#000000;" parent="1" vertex="1">
          <mxGeometry x="380" y="40" width="50" height="50" as="geometry" />
        </mxCell>
        <mxCell id="s-CJSZ-t-h5Rf1pWgORS-8" value="1A" style="points=[[0.03,0.36,0],[0.18,0,0],[0.5,0.34,0],[0.82,0,0],[0.97,0.36,0],[1,0.67,0],[0.975,0.975,0],[0.5,1,0],[0.025,0.975,0],[0,0.67,0]];verticalLabelPosition=bottom;sketch=0;html=1;verticalAlign=top;aspect=fixed;align=center;pointerEvents=1;shape=mxgraph.cisco19.wireless_access_point;fillColor=light-dark(#000000,#000000);strokeColor=none;" parent="1" vertex="1">
          <mxGeometry x="240" y="170" width="50" height="50" as="geometry" />
        </mxCell>
        <mxCell id="s-CJSZ-t-h5Rf1pWgORS-9" value="1B" style="points=[[0.03,0.36,0],[0.18,0,0],[0.5,0.34,0],[0.82,0,0],[0.97,0.36,0],[1,0.67,0],[0.975,0.975,0],[0.5,1,0],[0.025,0.975,0],[0,0.67,0]];verticalLabelPosition=bottom;sketch=0;html=1;verticalAlign=top;aspect=fixed;align=center;pointerEvents=1;shape=mxgraph.cisco19.wireless_access_point;fillColor=light-dark(#000000,#000000);strokeColor=none;" parent="1" vertex="1">
          <mxGeometry x="320" y="170" width="50" height="50" as="geometry" />
        </mxCell>
        <mxCell id="s-CJSZ-t-h5Rf1pWgORS-10" value="1C" style="points=[[0.03,0.36,0],[0.18,0,0],[0.5,0.34,0],[0.82,0,0],[0.97,0.36,0],[1,0.67,0],[0.975,0.975,0],[0.5,1,0],[0.025,0.975,0],[0,0.67,0]];verticalLabelPosition=bottom;sketch=0;html=1;verticalAlign=top;aspect=fixed;align=center;pointerEvents=1;shape=mxgraph.cisco19.wireless_access_point;fillColor=light-dark(#000000,#000000);strokeColor=none;" parent="1" vertex="1">
          <mxGeometry x="400" y="170" width="50" height="50" as="geometry" />
        </mxCell>
        <mxCell id="s-CJSZ-t-h5Rf1pWgORS-11" value="2A" style="points=[[0.03,0.36,0],[0.18,0,0],[0.5,0.34,0],[0.82,0,0],[0.97,0.36,0],[1,0.67,0],[0.975,0.975,0],[0.5,1,0],[0.025,0.975,0],[0,0.67,0]];verticalLabelPosition=bottom;sketch=0;html=1;verticalAlign=top;aspect=fixed;align=center;pointerEvents=1;shape=mxgraph.cisco19.wireless_access_point;fillColor=light-dark(#000000,#000000);strokeColor=none;fillStyle=solid;" parent="1" vertex="1">
          <mxGeometry x="240" y="290" width="50" height="50" as="geometry" />
        </mxCell>
        <mxCell id="s-CJSZ-t-h5Rf1pWgORS-12" value="2B" style="points=[[0.03,0.36,0],[0.18,0,0],[0.5,0.34,0],[0.82,0,0],[0.97,0.36,0],[1,0.67,0],[0.975,0.975,0],[0.5,1,0],[0.025,0.975,0],[0,0.67,0]];verticalLabelPosition=bottom;sketch=0;html=1;verticalAlign=top;aspect=fixed;align=center;pointerEvents=1;shape=mxgraph.cisco19.wireless_access_point;fillColor=light-dark(#000000,#000000);strokeColor=none;fillStyle=solid;" parent="1" vertex="1">
          <mxGeometry x="320" y="290" width="50" height="50" as="geometry" />
        </mxCell>
        <mxCell id="s-CJSZ-t-h5Rf1pWgORS-13" value="2C" style="points=[[0.03,0.36,0],[0.18,0,0],[0.5,0.34,0],[0.82,0,0],[0.97,0.36,0],[1,0.67,0],[0.975,0.975,0],[0.5,1,0],[0.025,0.975,0],[0,0.67,0]];verticalLabelPosition=bottom;sketch=0;html=1;verticalAlign=top;aspect=fixed;align=center;pointerEvents=1;shape=mxgraph.cisco19.wireless_access_point;fillColor=light-dark(#000000,#000000);strokeColor=none;fillStyle=solid;" parent="1" vertex="1">
          <mxGeometry x="400" y="290" width="50" height="50" as="geometry" />
        </mxCell>
        <mxCell id="s-CJSZ-t-h5Rf1pWgORS-14" value="Lt2.5" style="points=[[0.03,0.36,0],[0.18,0,0],[0.5,0.34,0],[0.82,0,0],[0.97,0.36,0],[1,0.67,0],[0.975,0.975,0],[0.5,1,0],[0.025,0.975,0],[0,0.67,0]];verticalLabelPosition=bottom;sketch=0;html=1;verticalAlign=top;aspect=fixed;align=center;pointerEvents=1;shape=mxgraph.cisco19.wireless_access_point;fillColor=light-dark(#000000,#000000);strokeColor=none;fillStyle=solid;" parent="1" vertex="1">
          <mxGeometry x="480" y="290" width="50" height="50" as="geometry" />
        </mxCell>
        <mxCell id="s-CJSZ-t-h5Rf1pWgORS-17" value="" style="endArrow=classic;html=1;rounded=0;entryX=0.4;entryY=0;entryDx=0;entryDy=0;entryPerimeter=0;" parent="1" target="s-CJSZ-t-h5Rf1pWgORS-9" edge="1">
          <mxGeometry width="50" height="50" relative="1" as="geometry">
            <mxPoint x="340" y="140" as="sourcePoint" />
            <mxPoint x="180" y="280" as="targetPoint" />
          </mxGeometry>
        </mxCell>
        <mxCell id="s-CJSZ-t-h5Rf1pWgORS-18" value="" style="endArrow=classic;html=1;rounded=0;entryX=0.4;entryY=0;entryDx=0;entryDy=0;entryPerimeter=0;" parent="1" target="s-CJSZ-t-h5Rf1pWgORS-10" edge="1">
          <mxGeometry width="50" height="50" relative="1" as="geometry">
            <mxPoint x="420" y="140" as="sourcePoint" />
            <mxPoint x="550" y="160" as="targetPoint" />
          </mxGeometry>
        </mxCell>
        <mxCell id="s-CJSZ-t-h5Rf1pWgORS-19" style="edgeStyle=orthogonalEdgeStyle;rounded=0;orthogonalLoop=1;jettySize=auto;html=1;entryX=0.4;entryY=0;entryDx=0;entryDy=0;entryPerimeter=0;" parent="1" source="s-CJSZ-t-h5Rf1pWgORS-5" target="s-CJSZ-t-h5Rf1pWgORS-11" edge="1">
          <mxGeometry relative="1" as="geometry">
            <Array as="points">
              <mxPoint x="500" y="65" />
              <mxPoint x="500" y="250" />
              <mxPoint x="260" y="250" />
            </Array>
          </mxGeometry>
        </mxCell>
        <mxCell id="s-CJSZ-t-h5Rf1pWgORS-20" value="" style="endArrow=classic;html=1;rounded=0;entryX=0.4;entryY=0;entryDx=0;entryDy=0;entryPerimeter=0;" parent="1" target="s-CJSZ-t-h5Rf1pWgORS-12" edge="1">
          <mxGeometry width="50" height="50" relative="1" as="geometry">
            <mxPoint x="340" y="250" as="sourcePoint" />
            <mxPoint x="310" y="310" as="targetPoint" />
          </mxGeometry>
        </mxCell>
        <mxCell id="s-CJSZ-t-h5Rf1pWgORS-21" value="" style="endArrow=classic;html=1;rounded=0;entryX=0.4;entryY=0;entryDx=0;entryDy=0;entryPerimeter=0;" parent="1" target="s-CJSZ-t-h5Rf1pWgORS-13" edge="1">
          <mxGeometry width="50" height="50" relative="1" as="geometry">
            <mxPoint x="420" y="250" as="sourcePoint" />
            <mxPoint x="350" y="280" as="targetPoint" />
          </mxGeometry>
        </mxCell>
        <mxCell id="s-CJSZ-t-h5Rf1pWgORS-22" value="" style="endArrow=classic;html=1;rounded=0;entryX=0.4;entryY=0;entryDx=0;entryDy=0;entryPerimeter=0;" parent="1" target="s-CJSZ-t-h5Rf1pWgORS-14" edge="1">
          <mxGeometry width="50" height="50" relative="1" as="geometry">
            <mxPoint x="500" y="250" as="sourcePoint" />
            <mxPoint x="430" y="280" as="targetPoint" />
          </mxGeometry>
        </mxCell>
        <mxCell id="VRBAC_2ObA0FO26ys0ne-1" value="Kelas lt1&amp;nbsp;&lt;div&gt;dan 2&lt;/div&gt;" style="rounded=0;whiteSpace=wrap;html=1;" vertex="1" parent="1">
          <mxGeometry x="230" y="400" width="110" height="80" as="geometry" />
        </mxCell>
        <mxCell id="VRBAC_2ObA0FO26ys0ne-3" value="Kelas lt1&amp;nbsp;&lt;div&gt;dan 2&lt;/div&gt;" style="rounded=0;whiteSpace=wrap;html=1;" vertex="1" parent="1">
          <mxGeometry x="340" y="400" width="110" height="80" as="geometry" />
        </mxCell>
        <mxCell id="VRBAC_2ObA0FO26ys0ne-4" value="Kelas lt1 dan 2" style="rounded=0;whiteSpace=wrap;html=1;" vertex="1" parent="1">
          <mxGeometry x="580" y="400" width="110" height="80" as="geometry" />
        </mxCell>
        <mxCell id="VRBAC_2ObA0FO26ys0ne-5" value="KM" style="rounded=0;whiteSpace=wrap;html=1;" vertex="1" parent="1">
          <mxGeometry x="170" y="400" width="60" height="80" as="geometry" />
        </mxCell>
        <mxCell id="VRBAC_2ObA0FO26ys0ne-7" value="Kelas lt2.5" style="rounded=0;whiteSpace=wrap;html=1;" vertex="1" parent="1">
          <mxGeometry x="20" y="400" width="120" height="80" as="geometry" />
        </mxCell>
        <mxCell id="VRBAC_2ObA0FO26ys0ne-8" value="Server" style="rounded=0;whiteSpace=wrap;html=1;" vertex="1" parent="1">
          <mxGeometry x="60" y="650" width="100" height="60" as="geometry" />
        </mxCell>
        <mxCell id="VRBAC_2ObA0FO26ys0ne-9" value="" style="endArrow=none;html=1;rounded=0;exitX=1;exitY=0.5;exitDx=0;exitDy=0;strokeColor=#3333FF;entryX=0.5;entryY=1;entryDx=0;entryDy=0;" edge="1" parent="1" source="VRBAC_2ObA0FO26ys0ne-8" target="VRBAC_2ObA0FO26ys0ne-11">
          <mxGeometry width="50" height="50" relative="1" as="geometry">
            <mxPoint x="390" y="510" as="sourcePoint" />
            <mxPoint x="700" y="510" as="targetPoint" />
            <Array as="points">
              <mxPoint x="170" y="680" />
              <mxPoint x="170" y="510" />
            </Array>
          </mxGeometry>
        </mxCell>
        <mxCell id="VRBAC_2ObA0FO26ys0ne-10" value="" style="endArrow=none;html=1;rounded=0;strokeColor=#3333FF;" edge="1" parent="1">
          <mxGeometry width="50" height="50" relative="1" as="geometry">
            <mxPoint x="360" y="510" as="sourcePoint" />
            <mxPoint x="360" y="440" as="targetPoint" />
          </mxGeometry>
        </mxCell>
        <mxCell id="VRBAC_2ObA0FO26ys0ne-11" value="6" style="ellipse;whiteSpace=wrap;html=1;aspect=fixed;fillColor=#66FF66;" vertex="1" parent="1">
          <mxGeometry x="735" y="490" width="20" height="20" as="geometry" />
        </mxCell>
        <mxCell id="VRBAC_2ObA0FO26ys0ne-12" value="11" style="ellipse;whiteSpace=wrap;html=1;aspect=fixed;fillColor=#66FF66;" vertex="1" parent="1">
          <mxGeometry x="550" y="490" width="20" height="20" as="geometry" />
        </mxCell>
        <mxCell id="VRBAC_2ObA0FO26ys0ne-14" value="Kelas lt1 dan 2" style="rounded=0;whiteSpace=wrap;html=1;" vertex="1" parent="1">
          <mxGeometry x="450" y="400" width="110" height="80" as="geometry" />
        </mxCell>
        <mxCell id="VRBAC_2ObA0FO26ys0ne-15" value="1" style="ellipse;whiteSpace=wrap;html=1;aspect=fixed;fillColor=#66FF66;" vertex="1" parent="1">
          <mxGeometry x="340" y="430" width="20" height="20" as="geometry" />
        </mxCell>
        <mxCell id="VRBAC_2ObA0FO26ys0ne-16" value="Kelas lt1 dan 2" style="rounded=0;whiteSpace=wrap;html=1;" vertex="1" parent="1">
          <mxGeometry x="690" y="400" width="110" height="80" as="geometry" />
        </mxCell>
        <mxCell id="VRBAC_2ObA0FO26ys0ne-17" value="1" style="ellipse;whiteSpace=wrap;html=1;aspect=fixed;fillColor=#FF8000;" vertex="1" parent="1">
          <mxGeometry x="680" y="430" width="20" height="20" as="geometry" />
        </mxCell>
        <mxCell id="VRBAC_2ObA0FO26ys0ne-18" value="" style="endArrow=none;html=1;rounded=0;strokeColor=#3333FF;" edge="1" parent="1">
          <mxGeometry width="50" height="50" relative="1" as="geometry">
            <mxPoint x="700" y="510" as="sourcePoint" />
            <mxPoint x="700" y="440" as="targetPoint" />
          </mxGeometry>
        </mxCell>
        <mxCell id="VRBAC_2ObA0FO26ys0ne-19" value="11" style="ellipse;whiteSpace=wrap;html=1;aspect=fixed;fillColor=#FF8000;" vertex="1" parent="1">
          <mxGeometry x="320" y="430" width="20" height="20" as="geometry" />
        </mxCell>
        <mxCell id="VRBAC_2ObA0FO26ys0ne-20" value="" style="endArrow=none;html=1;rounded=0;strokeColor=#666666;fillColor=#f5f5f5;" edge="1" parent="1">
          <mxGeometry width="50" height="50" relative="1" as="geometry">
            <mxPoint x="100" y="406" as="sourcePoint" />
            <mxPoint x="100" y="336" as="targetPoint" />
          </mxGeometry>
        </mxCell>
        <mxCell id="VRBAC_2ObA0FO26ys0ne-21" value="6" style="ellipse;whiteSpace=wrap;html=1;aspect=fixed;fillColor=#FF8000;" vertex="1" parent="1">
          <mxGeometry x="495" y="490" width="20" height="20" as="geometry" />
        </mxCell>
        <mxCell id="VRBAC_2ObA0FO26ys0ne-22" value="6" style="ellipse;whiteSpace=wrap;html=1;aspect=fixed;fillColor=#FF8000;" vertex="1" parent="1">
          <mxGeometry x="70" y="450" width="20" height="20" as="geometry" />
        </mxCell>
        <mxCell id="VRBAC_2ObA0FO26ys0ne-24" value="" style="endArrow=none;html=1;rounded=0;exitX=0;exitY=0.5;exitDx=0;exitDy=0;strokeColor=#3333FF;" edge="1" parent="1" source="VRBAC_2ObA0FO26ys0ne-8">
          <mxGeometry width="50" height="50" relative="1" as="geometry">
            <mxPoint x="20" y="640" as="sourcePoint" />
            <mxPoint x="80" y="470" as="targetPoint" />
            <Array as="points">
              <mxPoint x="50" y="680" />
              <mxPoint x="50" y="530" />
              <mxPoint x="140" y="530" />
              <mxPoint x="140" y="490" />
              <mxPoint x="80" y="490" />
            </Array>
          </mxGeometry>
        </mxCell>
        <mxCell id="VRBAC_2ObA0FO26ys0ne-25" value="APLantai1" style="ellipse;whiteSpace=wrap;html=1;aspect=fixed;fillColor=#66FF66;align=left;labelPosition=right;verticalLabelPosition=middle;verticalAlign=middle;" vertex="1" parent="1">
          <mxGeometry x="290" y="559" width="20" height="20" as="geometry" />
        </mxCell>
        <mxCell id="VRBAC_2ObA0FO26ys0ne-26" value="APLantai2" style="ellipse;whiteSpace=wrap;html=1;aspect=fixed;fillColor=#FF8000;align=left;labelPosition=right;verticalLabelPosition=middle;verticalAlign=middle;" vertex="1" parent="1">
          <mxGeometry x="290" y="585" width="20" height="20" as="geometry" />
        </mxCell>
        <mxCell id="VRBAC_2ObA0FO26ys0ne-32" value="A" style="text;html=1;align=center;verticalAlign=middle;resizable=0;points=[];autosize=1;strokeColor=#666666;fillColor=#f5f5f5;fontColor=#333333;" vertex="1" parent="1">
          <mxGeometry x="330" y="520" width="30" height="30" as="geometry" />
        </mxCell>
        <mxCell id="VRBAC_2ObA0FO26ys0ne-34" value="B" style="text;html=1;align=center;verticalAlign=middle;resizable=0;points=[];autosize=1;strokeColor=#666666;fillColor=#f5f5f5;fontColor=#333333;" vertex="1" parent="1">
          <mxGeometry x="520" y="520" width="30" height="30" as="geometry" />
        </mxCell>
        <mxCell id="VRBAC_2ObA0FO26ys0ne-35" value="" style="endArrow=none;html=1;rounded=0;strokeColor=#666666;fillColor=#f5f5f5;" edge="1" parent="1">
          <mxGeometry width="50" height="50" relative="1" as="geometry">
            <mxPoint x="286" y="410" as="sourcePoint" />
            <mxPoint x="286" y="340" as="targetPoint" />
          </mxGeometry>
        </mxCell>
        <mxCell id="VRBAC_2ObA0FO26ys0ne-36" value="C" style="text;html=1;align=center;verticalAlign=middle;resizable=0;points=[];autosize=1;strokeColor=#666666;fillColor=#f5f5f5;fontColor=#333333;" vertex="1" parent="1">
          <mxGeometry x="690" y="520" width="30" height="30" as="geometry" />
        </mxCell>
      </root>
    </mxGraphModel>
  </diagram>
</mxfile>
